HIERARCHY
ROOT pelvis
{
  OFFSET 0 100 0
  CHANNELS 6 Xposition Yposition Zposition Zrotation Xrotation Yrotation
  JOINT pelvis_right_femur
  {
    OFFSET -10.78128 -3.44521 -0.5502486
    CHANNELS 3 Zrotation Xrotation Yrotation
    JOINT right_femur_tibia
    {
      OFFSET -0.8047443 -44.0398 -0.1307829
      CHANNELS 3 Zrotation Xrotation Yrotation
      JOINT right_tibia_foot
      {
        OFFSET 3.006224 -47.83518 -5
        CHANNELS 3 Zrotation Xrotation Yrotation
        End Site
        {
          OFFSET 0 -5 15
        }
      }
    }
  }
  JOINT pelvis_left_femur
  {
    OFFSET 10.78128 -3.44521 -0.5502486
    CHANNELS 3 Zrotation Xrotation Yrotation
    JOINT left_femur_tibia
    {
      OFFSET 0.8047443 -44.0398 -0.1307829
      CHANNELS 3 Zrotation Xrotation Yrotation
      JOINT left_tibia_foot
      {
        OFFSET -4.370144 -48.10324 -4.275266
        CHANNELS 3 Zrotation Xrotation Yrotation
        End Site
        {
          OFFSET 0 -5 15
        }
      }
    }
  }
  JOINT pelvis_spine1
  {
    OFFSET 0 6.468898 -3.129235
    CHANNELS 3 Zrotation Xrotation Yrotation
    JOINT spine1
    {
      OFFSET 0 23.15396 4.99043
      CHANNELS 3 Zrotation Xrotation Yrotation
      JOINT spine2
      {
        OFFSET 0 20.79997 -5.064912
        CHANNELS 3 Zrotation Xrotation Yrotation
        JOINT neck
        {
          OFFSET 0 14.38658 9.616178
          CHANNELS 3 Zrotation Xrotation Yrotation
          End Site
          {
            OFFSET 0 20 0
          }
        }
      }
      JOINT right_manubrium
      {
        OFFSET -5.722621 16.35077 3.967754
        CHANNELS 3 Zrotation Xrotation Yrotation
        JOINT right_clavicle
        {
          OFFSET -13.16364 1.694482 -4.693211
          CHANNELS 3 Zrotation Xrotation Yrotation
          JOINT right_humerus
          {
            OFFSET -28.5034 -0.3100689 -2.792744
            CHANNELS 3 Zrotation Xrotation Yrotation
            JOINT right_radius
            {
              OFFSET -25.15693 0.02248979 -1.271978
              CHANNELS 3 Zrotation Xrotation Yrotation
              End Site
              {
                OFFSET -15 0 0
              }
            }
          }
        }
      }
      JOINT left_manubrium
      {
        OFFSET 5.722621 16.35077 3.967754
        CHANNELS 3 Zrotation Xrotation Yrotation
        JOINT left_clavicle
        {
          OFFSET 13.16364 1.694482 -4.693211
          CHANNELS 3 Zrotation Xrotation Yrotation
          JOINT left_humerus
          {
            OFFSET 29.39168 -1.063119 -2.237045
            CHANNELS 3 Zrotation Xrotation Yrotation
            JOINT left_radius
            {
              OFFSET 24.59957 -0.9528479 0.9047498
              CHANNELS 3 Zrotation Xrotation Yrotation
              End Site
              {
                OFFSET 15 -0 -0
              }
            }
          }
        }
      }
    }
  }
}
MOTION
Frames: 15
Frame Time: 0.0416666666667
0 103.5113 0 0.7848031 -1.164255 0.1829804 3.272795 -17.13659 7.600697 -0 37.124 -0 -5.845667 -13.79816 -2.948424 -7.077742 7.366018 -21.68271 -0 4.476411 -0 7.392757 -18.25325 25.27661 -1.790295 -2.786044 5.13276 3.173816 10.4493 -7.371034 0.3284505 20.94924 7.470309 3.874347 -28.3405 8.764375 5.13703 -21.70432 12.6633 84.81845 36.75703 -16.43079 -0 0 15.77555 -9.785666 9.516522 7.624286 5.434557 -20.90888 -1.399535 -96.15131 22.4308 27.91927 0 0 -14.04457 11.60589 16.66475 0.4195165
0.3656772 103.2734 1.478482 0.7612834 -1.067984 0.3722295 3.474863 -19.30675 7.730785 -0 37.59064 -0 -5.94386 -13.23233 -3.250254 -7.117426 9.509582 -21.99807 -0 5.691923 -0 7.383825 -18.67506 25.0819 -1.751156 -2.807862 5.060382 3.204134 10.5405 -7.504434 0.3189112 20.8982 7.47859 3.870326 -28.31267 8.745835 5.074806 -21.59993 12.67286 85.22481 36.59568 -16.97311 -0 0 15.40575 -9.885434 9.614969 7.56998 5.477038 -21.16491 -1.520395 -95.73572 22.3061 27.40388 0 0 -14.69071 11.74058 16.56813 0.2687658
0.651545 102.8657 3.319375 0.5941965 -0.9236974 0.5930243 3.650293 -21.98386 6.882713 -0 34.16324 -0 -6.130112 -11.97267 -3.442797 -6.7263 11.67401 -21.06726 -0 5.607425 -0 6.826463 -19.4214 23.91335 -1.882946 -2.545257 4.596084 3.314742 10.26146 -7.869642 0.3764885 20.95386 7.572408 3.891055 -27.75066 8.754722 5.186726 -20.36776 12.44605 86.20496 36.51921 -18.72354 -0 0 13.69714 -9.877092 9.634008 7.147071 5.651238 -21.50965 -1.726958 -93.99405 23.0151 24.49664 0 0 -16.94875 11.07258 15.86295 1.03042
0.8588037 102.2766 5.433511 0.4125337 -0.6875157 0.8235969 3.874003 -24.56677 6.160309 -0 30.46984 -0 -6.410055 -11.13047 -3.567468 -6.363566 13.62307 -20.33509 -0 5.39254 -0 6.446079 -20.1023 22.93278 -1.911211 -2.471748 4.346336 3.399493 10.19614 -8.107351 0.3874293 20.95599 7.631399 3.910811 -27.58847 8.773755 5.200963 -19.82026 12.36563 86.87515 36.43894 -19.7912 -0 0 12.74358 -9.830541 9.660902 6.894574 5.761303 -21.82587 -1.864067 -93.09957 23.18566 23.05181 0 0 -18.21354 11.02676 15.61477 1.082702
0.9865672 101.4516 7.97266 0.2076702 -0.5303101 1.078222 3.996391 -27.17382 5.142367 -0 26.0814 -0 -6.64011 -9.884657 -3.703223 -5.942931 15.60054 -19.18239 -0 5.177197 -0 5.758441 -20.80503 21.58504 -1.972959 -2.366546 4.092103 3.481543 10.05201 -8.303963 0.4072597 20.99443 7.697999 3.937847 -27.41114 8.810244 5.263387 -19.22498 12.26012 87.41388 36.45699 -20.72001 -0 0 11.83813 -9.702326 9.623291 6.623571 5.866699 -22.03235 -1.946154 -92.29303 23.48042 21.64261 0 0 -19.30445 10.87885 15.37914 1.249785
1.042206 100.3977 11.05115 0.01540376 -0.517965 1.37066 3.984262 -29.5358 3.964407 -0 21.81152 -0 -6.760327 -8.261333 -3.881417 -5.553221 17.49628 -17.73833 -0 5.356393 -0 4.769033 -21.40255 19.98407 -2.004649 -2.303008 3.907046 3.54331 9.976189 -8.463132 0.4180476 21.00988 7.744508 3.955401 -27.29285 8.831963 5.291013 -18.8102 12.19301 87.86111 36.42723 -21.45152 -0 0 11.1565 -9.633333 9.616879 6.429683 5.946053 -22.22645 -2.025518 -91.67533 23.62877 20.59764 0 0 -20.16258 10.8208 15.20979 1.315225
1.040495 99.14749 14.82271 -0.1476954 -0.7378372 1.714026 3.811727 -31.37067 2.610161 -0 17.87577 -0 -6.714398 -6.153935 -4.129683 -5.21274 19.14087 -15.88895 -0 6.321787 -0 3.35344 -21.75403 18.06677 -2.037685 -2.238444 3.743187 3.594624 9.897935 -8.598 0.430148 21.0279 7.784631 3.969884 -27.17218 8.84998 5.321507 -18.4298 12.12836 88.2393 36.40198 -22.08061 -0 0 10.55826 -9.575499 9.607418 6.260567 6.014217 -22.38136 -2.091643 -91.12531 23.77413 19.65559 0 0 -20.91113 10.73442 15.04611 1.413121
1.00409 97.79167 19.39517 -0.2572704 -1.235032 2.106223 3.555158 -32.29771 1.262683 -0 14.71945 -0 -6.491972 -3.74866 -4.462409 -4.946279 20.24003 -13.73916 -0 8.600391 -0 1.561839 -21.64496 15.98906 -2.059311 -2.183379 3.600892 3.635961 9.847287 -8.725642 0.4407465 21.03446 7.814912 3.977811 -27.04911 8.856435 5.335698 -18.09684 12.07497 88.60232 36.33518 -22.66548 -0 0 10.01857 -9.565202 9.621874 6.123585 6.072906 -22.54093 -2.167864 -90.60038 23.86339 18.78666 0 0 -21.62877 10.65219 14.87694 1.50705
0.9580893 96.48447 24.79043 -0.2961714 -2.014924 2.520552 3.379514 -31.97819 0.1988559 -0 12.68022 -0 -6.130579 -1.386514 -4.879781 -4.734217 20.47611 -11.48872 -0 12.77243 -0 -0.4550184 -20.85668 14.00703 -2.075522 -2.126509 3.467338 3.668674 9.811212 -8.853067 0.4527562 21.03338 7.8373 3.979197 -26.90017 8.851 5.339295 -17.77101 12.02407 88.96747 36.22504 -23.24408 -0 0 9.492928 -9.604003 9.65909 6.008418 6.125817 -22.70638 -2.258017 -90.0514 23.92212 17.90262 0 0 -22.37185 10.5393 14.67602 1.636813
0.9196367 95.43261 30.90143 -0.2610423 -3.02058 2.90143 3.47532 -30.25009 -0.2733932 -0 11.9573 -0 -5.72166 0.4707634 -5.354991 -4.52355 19.62188 -9.447837 -0 19.26001 -0 -2.442402 -19.25792 12.45695 -2.0812 -2.065853 3.359113 3.680402 9.804771 -8.972052 0.4680279 21.01714 7.841314 3.966279 -26.69742 8.819895 5.321594 -17.47187 11.97928 89.31228 36.03249 -23.77546 -0 0 9.024895 -9.747781 9.742644 5.946881 6.163146 -22.87068 -2.372648 -89.476 23.92717 17.02719 0 0 -23.13039 10.354 14.4113 1.851131
0.8862284 94.84895 37.49271 -0.1728139 -4.141689 3.167115 3.947616 -27.17148 0.02249402 -0 12.42223 -0 -5.395141 1.376542 -5.825682 -4.252041 17.58961 -7.907874 -0 28.09724 -0 -4.145987 -16.86279 11.6195 -2.073799 -1.995008 3.32015 3.643543 9.839873 -9.043369 0.4911627 20.98092 7.806714 3.926216 -26.39845 8.742066 5.274219 -17.25696 11.94578 89.52512 35.7246 -24.09047 -0 0 8.762971 -10.07848 9.896465 6.006958 6.160098 -22.97499 -2.508635 -88.94442 23.8705 16.30422 0 0 -23.76554 10.00217 14.04367 2.259244
0.8334956 94.88436 44.23452 -0.07546925 -5.234236 3.217396 4.763772 -22.8701 1.06012 -0 13.58276 -0 -5.289574 0.9560595 -6.185084 -3.871139 14.31179 -7.043426 -0 38.69814 -0 -5.372495 -13.81776 11.65493 -2.050928 -1.91213 3.418224 3.521871 9.928612 -9.001107 0.5264538 20.92281 7.707973 3.845387 -25.97493 8.596541 5.190101 -17.23337 11.93406 89.42457 35.28885 -23.91136 -0 0 8.952159 -10.67762 10.13469 6.281194 6.081586 -22.92062 -2.64532 -88.61696 23.75362 16.02351 0 0 -24.0011 9.389127 13.55573 2.971723
0.7294273 95.55036 50.77521 -0.0265069 -6.133075 2.952689 5.757259 -17.48623 2.586291 -0 14.59949 -0 -5.504036 -1.005349 -6.293409 -3.34987 9.703856 -6.839606 -0 49.56349 -0 -6.007887 -10.41658 12.55755 -2.016179 -1.821826 3.696006 3.298814 10.06353 -8.792925 0.5744025 20.85147 7.535869 3.723026 -25.44853 8.384842 5.075723 -17.48516 11.95076 88.87874 34.76435 -23.03323 -0 0 9.770992 -11.53989 10.43219 6.813584 5.908707 -22.62504 -2.745892 -88.66217 23.60563 16.44841 0 0 -23.57439 8.502574 12.98257 4.004159
0.5653547 96.66401 56.87739 -0.06506747 -6.696395 2.32451 6.638599 -11.38518 4.101718 -0 14.61118 -0 -5.984615 -4.229729 -6.046583 -2.692833 3.953565 -7.017251 -0 58.11882 -0 -6.06259 -7.186447 14.05097 -1.973763 -1.737901 4.124293 3.000005 10.22673 -8.436805 0.628632 20.77786 7.310926 3.575799 -24.89357 8.136008 4.944428 -17.99688 11.99487 87.9591 34.20694 -21.54962 -0 0 11.1421 -12.55452 10.7394 7.544081 5.661829 -22.11572 -2.790408 -89.10469 23.44103 17.56909 0 0 -22.49561 7.468224 12.40073 5.211798
0.381703 97.88753 62.55874 -0.169619 -6.907025 1.393826 7.103605 -5.225136 5.02705 -0 13.40681 -0 -6.455098 -7.736336 -5.448337 -1.93035 -2.258529 -7.084459 -0 61.64176 -0 -5.710884 -4.779727 15.60363 -1.922721 -1.674184 4.622673 2.674123 10.40934 -8.012002 0.6803987 20.70432 7.06722 3.424175 -24.37839 7.882731 4.802059 -18.6643 12.05957 86.89916 33.6382 -19.79761 -0 0 12.77992 -13.5976 11.02622 8.354757 5.385733 -21.51981 -2.79722 -89.79191 23.23663 19.09367 0 0 -21.06387 6.458193 11.86881 6.394639
